<svg xmlns="http://www.w3.org/2000/svg" width="200" height="200" viewBox="0 0 200 200">
<!-- SVG created with Arrow, by QuiverAI (https://quiver.ai) -->
  <path d="m10.3 32.74v16.18h6.11v10.4h-5.68v5.76h5.68v5.76h5.68v5.35h5.68v5.35h5.68v5.35h-6.56v5.76h5.68v4.92h11.28v-5.35h5.68v9.98h-5.68v11.26h5.24v4.92h-16.52v11.26h-10.86v5.35h-5.74v5.35h5.68v5.76h-10.86v4.93h-5.06v5.35h4.88v10.88h-4.88v16.18h16.52v-5.34h5.28v-5.35h5.1v4.92h5.68v5.77h5.18v-5.77h6.1v-4.92h4.7v4.92h5.22v-5.35h5.28v-4.92h5.22v5.35h5.5v-5.77h5.74v-10.88h5.28v5.35h5.68v5.77h5.28v5.35h5.28v-5.77h4.88v-10.7h5.74v5.35h5.68v4.92h-5.28v16.62h4.88v5.77h5.28v-5.35h5.28v-11.26h5.68v5.76h15.9v-11.25h-5.28v-5.35h16.18v-10.28h-5.28v-5.35h16.18v-10.28h5.68v-5.76h6.12v-11.26h6.1v-5.35h4.2v-5.35h-9.9v-5.35h4.88v-10.28h4.88v-10.69h-15.9v5.35h-5.28v5.35h-5.68v-5.35h-10.86v10.36h-6.12v-5.76h-5.68v-4.92h-5.68v-5.35h5.28v-5.35h5.68v-10.61h-5.28v-5.35h5.68v-10.88h5.28v-6.24h-5.28v-5.35h-5.28v-4.15h5.28v-22.35h-10.02v4.92h-5.74v5.76h-5.28v10.28h-6.12v-4.64h-4.88v6.03h-5.28v5.35h-5.28v4.92h-5.74v15.58h-5.28v5.76h-5.28v5.76h-15.9v-16.62h-10.42v5.35h-6.12v-15.97h-16.24v-5.35h-5.28v4.92h-5.28v-5.35h-10.86v-4.72h-11.43z" fill="#000"/>
  <path d="m15.54 37.66v10.53h5.44v6.24h-4.65v4.92h11.22v-4.92h-5.5v-5.76h8.18v-5.76h-9.37v-5.25h-5.32z" fill="#79B542"/>
  <path d="m32.01 43.42h5.61v10.69h-5.61v-10.69z" fill="#579543"/>
  <path d="m38.42 43.01h5.44v16.62h-5.44v-16.62z" fill="#79B542"/>
  <path d="m48.85 48.67h5.5v17.04h-5.5v-5.76h-4.88v-5.35h4.88v-5.93z" fill="#79B542"/>
  <path d="m65.25 59.66h5.28v5.35h-5.28v-5.35z" fill="#579543"/>
  <path d="m69.69 59.21h4.88v11.7h-4.88v-11.7z" fill="#79B542"/>
  <path d="m82.31 65.44h4.88v5.76h-4.88v-5.76z" fill="#000"/>
  <path d="m92.73 65.08h4.88v10.61h-4.88v-10.61z" fill="#000"/>
  <path d="m103.2 43.11h5.5v11.63h-5.5v-11.63z" fill="#000"/>
  <path d="m113.7 32.74h5.5v10.68h-5.5v-10.68z" fill="#000"/>
  <path d="m120 32.33h4.88v10.68h-4.88v-10.68z" fill="#79B542"/>
  <path d="m130 22.19h5.5v15.41h-5.5v-15.41z" fill="#000"/>
  <path d="m140 15.95h5.92v11.74h-5.92v4.92h-4.48v-11.6h4.48v-5.06z" fill="#579543"/>
  <path d="m135.1 37.26h5.5v11.14h-5.5v-11.14z" fill="#266331"/>
  <path d="m146.1 37.26h4.88v5.69h-4.88v-5.69z" fill="#000"/>
  <path d="m145.6 43.01h5.44v5.35h-5.44v-5.35z" fill="#579543"/>
  <path d="m135.1 48.36h6.12v5.35h-6.12v-5.35z" fill="#79B542"/>
  <path d="m129.2 48.36h5.86v10.69h-5.86v-10.69z" fill="#266331"/>
  <path d="m119.2 43.44h5.5v5.35h-5.5v-5.35z" fill="#266331"/>
  <path d="m108.7 43.42h4.94v10.69h-4.94v-10.69z" fill="#79B542"/>
  <path d="m113.7 53.36h9.88v6.23h5.74v5.77h5.74v4.92h10.42v-5.35h4.74v10.28h-26.64v-15.58h-4.88v-5.76h-5v-0.51z" fill="#000"/>
  <path d="m135.3 65.08h5.92v5.35h-5.92v-5.35z" fill="#79B542"/>
  <path d="m103.1 59.73h4.88v4.92h-4.88v-4.92z" fill="#000"/>
  <path d="m108.3 54.45h6v10.69h5.74v11.15h-5.74v-5.77h-6v-5.76h2.34v-5.05h-2.34v-5.26z" fill="#266331"/>
  <path d="m97.95 64.72h5.1v5.35h-5.1v-5.35z" fill="#266331"/>
  <path d="m102.8 70.07h5.92v5.35h-5.92v-5.35z" fill="#579543"/>
  <path d="m108.7 75.42h8.92v20.62h-8.92v-5.35h-5.34v-9.51h5.34v-5.76z" fill="#579543"/>
  <path d="m118 76.29h10.42v5.35h5.28v5.35h5.74v5.35h-21.44v-16.05z" fill="#266331"/>
  <path d="m130.1 81.18h4.88v5.35h-4.88v-5.35z" fill="#579543"/>
  <path d="m179.5 86.53h9.98v5.35h-4.88v5.35h-5.28v5.35h-5.74v-10.36h5.28l0.64-5.69z" fill="#579542"/>
  <path d="m184.8 92.65h4.88v9.54h-4.88v-9.54z" fill="#000"/>
  <path d="m173.4 92.65h5.44v10.07h-5.44v-10.07z" fill="#000"/>
  <path d="m163 92.22h4.88v10.22h4.88v5.35h-5.28v4.92h-4.48v-20.49z" fill="#579542"/>
  <path d="m152.4 102.2h5.44v5.35h-5.44v-5.35z" fill="#000"/>
  <path d="m146.6 97.68h4.88v10.68h5.5v5.35h5.5v5.35h10.86v5.35h5.28v5.35h-6.12v-5.35h-10.42v-5.35h-6v-5.76h-5.06v-4.92h-4.42v-10.7z" fill="#579542"/>
  <path d="m152 118.4h5.44v5.35h-5.44v-5.35z" fill="#000"/>
  <path d="m135.8 113h5.92v5.76h4.88v5.35h5.44v4.92h14.86v5.35h4.88v5.35h-10.42v-5.35h-5.74v-4.92h-6.02v-5.35h-5.96v-5.76h-7.84v-5.35z" fill="#000"/>
  <path d="m130.5 107.7h5.44v5.35h-5.44v-5.35z" fill="#579542"/>
  <path d="m124.8 102.3h9.42v4.92h5.44v5.35h-5.28v-5.35h-9.58v-4.92z" fill="#000"/>
  <path d="m118.7 92.44h21.14v4.92h-10.66v5.36h-10.48v-10.28z" fill="#000"/>
  <path d="m178.9 102.3h4.88v5.35h-4.88v-5.35z" fill="#579542"/>
  <path d="m168.4 107.7h5.44v5.35h-5.44v-5.35z" fill="#579542"/>
  <path d="m184 107.7h9.88v5.35h-9.88v-5.35z" fill="#000"/>
  <path d="m150.7 151h5.28v5.35h-9.88v-5.35h4.6z" fill="#579542"/>
  <path d="m135.2 150.5h9.98v5.76h-5.28v5.35h5.28v4.92h-5.28v-4.92h-4.7v-11.11z" fill="#000"/>
  <path d="m139.7 167h5.92v5.35h-5.92v-5.35z" fill="#000"/>
  <path d="m134.8 166.6h4.88v5.35h-4.88v-5.35z" fill="#579542"/>
  <path d="m124.4 166.6h9.98v4.92h-5.28v11.15h-5.44v-15.41l0.74-0.66z" fill="#000"/>
  <path d="m118.7 166.6h4.88v16.39h-4.88v-16.39z" fill="#579542"/>
  <path d="m119.1 150.1h9.98v16.18h-5.5v-5.76h-4.88v-5.35h-5.28v-5.07h5.68z" fill="#579542"/>
  <path d="m130 150.1h5.5v16.18h-5.5v-16.18z" fill="#266331"/>
  <path d="m135.3 145.2h5.44v5.35h-5.44v-5.35z" fill="#79B542"/>
  <path d="m130.4 139.9h5.92v5.35h-5.92v-5.35z" fill="#266331"/>
  <path d="m119.4 134.5h5.92v5.35h5.92v5.35h-5.5v5.35h-4.94v-5.77h-5.34v-5.35h3.94v-4.93z" fill="#000"/>
  <path d="m135.8 129.6h5.92v5.35h-5.92v-5.35z" fill="#266331"/>
  <path d="m141.2 124.4h5.92v5.35h10.42v5.35h-10.86v-4.92h-5.48v-5.78z" fill="#579542"/>
  <path d="m130.8 118.6h5.92v5.76h3.5v10.58h-5.28v-5.35h-5.28v-5.76h-4.88v-5.35h-4.7v-4.92h5.44v5.04h5.28z" fill="#000"/>
  <path d="m118.6 107.7h4.88v5.77h-4.88v-5.77z" fill="#C5E29E"/>
  <path d="m113.3 107.2h4.88v16.62h-4.88v-16.62z" fill="#000"/>
  <path d="m118.2 118.5h4.88v5.76h-4.88v-5.76z" fill="#579542"/>
  <path d="m113.3 123.9h5.32v11.13h-5.32v-5.35h-5.74v-5.78h5.74z" fill="#000"/>
  <path d="m102.3 124.3h5.5v10.68h-5.5v-10.68z" fill="#266331"/>
  <path d="m107.6 134.9h5.5v5.35h4.5v5.35h-10v-10.7z" fill="#579542"/>
  <path d="m107.6 145.6h5.28v4.92h-5.28v-4.92z" fill="#266331"/>
  <path d="m97.19 150.6h5.5v16.19h-5.5v-5.35h-4.88v-10.84h4.88z" fill="#79B542"/>
  <path d="m92.27 145.2h5.44v5.35h-5.44v-5.35z" fill="#266331"/>
  <path d="m86.99 145.2h5.1v5.35h-5.1v-5.35z" fill="#579542"/>
  <path d="m81.71 144.8h5.28v6.24h-5.28v-6.24z" fill="#79B542"/>
  <path d="m76.03 140.3h4.88v5.35h-4.88v-5.35z" fill="#579542"/>
  <path d="m71.15 145.2h5.5v11.14h-5.5v-11.14z" fill="#579542"/>
  <path d="m71.15 156.4h5.28v10.28h-5.28v-10.28z" fill="#79B542"/>
  <path d="m59.73 150.6h5.5v11.13h-5.5v-11.13z" fill="#000"/>
  <path d="m50.25 161.2h5.92v5.77h-5.92v-5.77z" fill="#266331"/>
  <path d="m44.01 156.4h4.88v15.77h-4.88v-15.77z" fill="#000"/>
  <path d="m27.01 161.3h5.44v10.5h-5.44v-10.5z" fill="#000"/>
  <path d="m16.03 161.7h6.06v5.35h-6.06v-5.35z" fill="#579542"/>
  <path d="m10.75 167.5h4.88v9.71h5.92v-4.93h4.88v-5.76h-5.5v-4.92h1.48v-4.92h-11.36v4.92h-0.3v5.9z" fill="#579542"/>
  <path d="m10.31 151.4h16.24v5.35h-5.28v5.35h-5.44v-5.35h-5.52v-5.35z" fill="#000"/>
  <path d="m27.41 151.4h5.92v5.35h5.28v0.34h4.48v20.4h-4.88v-5.28h-5.44v-10.53h-5.36v-10.28z" fill="#79B542"/>
  <path d="m37.83 150.6h5.44v5.35h-5.44v-5.35z" fill="#000"/>
  <path d="m32.55 145.6h5.92v5.35h-5.92v-5.35z" fill="#266331"/>
  <path d="m22.13 140.3h5.92v5.35h5.5v4.92h-11.42v-10.27z" fill="#579542"/>
  <path d="m27.01 137.8h6.82v7.44h4.88v4.92h5.74v4.92h-6.34v-4.92h-5.74v-5.35h-5.36v-7.01z" fill="#579542"/>
  <path d="m22.51 135.3h15.38v4.92h5.28v4.92h-4.88v-4.92h-15.78v-4.92z" fill="#000"/>
  <path d="m37.87 124.3h10.42v5.77h4.88v5.35h-9.6v-5.35h-5.7v-5.77z" fill="#579542"/>
  <path d="m49.11 123.4h5.5v5.76h4.88v4.93h-9.42v-4.93h-0.96v-5.76z" fill="#000"/>
  <path d="m54.39 113.4h10.42v5.35h-4.88v5.76h-5.54v-11.11z" fill="#79B542"/>
  <path d="m60.61 102.3h5.44v5.35h-5.44v-5.35z" fill="#79B542"/>
  <path d="m65.49 91.79h5.92v5.35h4.88v5.35h-15.88v-10.7h5.08z" fill="#579542"/>
  <path d="m70.77 86.03h5.92v10.68h-5.92v-10.68z" fill="#79B542"/>
  <path d="m76.13 75.69h5.44v10.68h-5.44v-10.68z" fill="#79B542"/>
  <path d="m81.41 70.84h5.44v10.68h-5.44v-10.68z" fill="#79B542"/>
  <path d="m86.75 81.18h4.88v8.97h-4.88v-8.97z" fill="#FEFFFE"/>
  <path d="m92.03 86.94h10.96v5.35h-5.74v5.35h-5.22v-10.7z" fill="#000"/>
  <path d="m102.8 92.34h5.5v5.35h-5.5v-5.35z" fill="#79B542"/>
  <path d="m107.7 81.64h4.88v5.77h-4.88v-5.77z" fill="#000"/>
  <path d="m97.29 75.42h4.88v5.35h-4.88v-5.35z" fill="#000"/>
  <path d="m91.95 92.22h5.44v5.35h-5.44v-5.35z" fill="#79B542"/>
  <path d="m76.53 92.22h15.38v4.92h-4.48v4.92h-6.34v-4.92h-4.56v-4.92z" fill="#000"/>
  <path d="m76.49 102.2h5.44v5.35h-5.44v-5.35z" fill="#579542"/>
  <path d="m65.41 107.6h21.14v5.76h-21.14v-5.76z" fill="#79B542"/>
  <path d="m81.25 107.2h5.92v5.35h4.88v5.76h-5.28v-5.35h-5.52v-5.76z" fill="#000"/>
  <path d="m65.35 113.4h15.32v5.35h-5.28v5.35h-5.34v-5.76h-4.7v-4.94z" fill="#000"/>
  <path d="m60.47 118.8h5.44v5.35h-5.44v-5.35z" fill="#579542"/>
  <path d="m65.35 124.1h5.92v5.35h-5.92v-5.35z" fill="#579542"/>
  <path d="m70.71 123.9h5.44v5.35h-5.44v-5.35z" fill="#79B542"/>
  <path d="m76.03 123.9h5.44v5.76h5.28v-5.35h5.28v15.58h-5.44v-4.92h-10.56v-11.07z" fill="#000"/>
  <path d="m87.01 118.5h5.44v5.35h-5.44v-5.35z" fill="#000"/>
  <path d="m92.29 112.7h5.44v11.7h-5.44v-11.7z" fill="#000"/>
  <path d="m92.33 102.3h10.42v4.92h-10.42v-4.92z" fill="#000"/>
  <path d="m103.3 102.3h5.44v21.4h-5.44v-21.4z" fill="#266331"/>
  <path d="m93.61 124.3h5.34v10.68h3v11.63h-4.88v-5.77h-3.46v-16.54z" fill="#000"/>
  <path d="m92.73 139.9h4.38v5.35h-4.38v-5.35z" fill="#579542"/>
  <path d="m146.1 140.3h5.44v5.35h-5.44v-5.35z" fill="#000"/>
  <path d="m140.8 135h10.86v5.35h-4.88v4.81h-5.98v-10.16z" fill="#000"/>
  <path d="m49.21 86.94h15.88v4.92h-10.86v10.68h-5.02v-15.6z" fill="#000"/>
  <path d="m33.45 87.35h9.88v4.92h-9.88v-4.92z" fill="#79B542"/>
  <path d="m38.33 81.11h21.88v5.35h-16.52v0.87h-5.36v-6.22z" fill="#79B542"/>
  <path d="m27.89 76.19h26.64v4.52h-26.64v-4.52z" fill="#000"/>
  <path d="m27.01 70.42h21.14v5.35h-21.14v-5.35z" fill="#79B542"/>
  <path d="m16.59 64.66h26.64v4.92h-26.64v-4.92z" fill="#000"/>
  <path d="m27.45 54.29h5.44v5.35h-5.44v-5.35z" fill="#579542"/>
  <path d="m33.25 59.21h5.44v5.35h-5.44v-5.35z" fill="#579542"/>
  <path d="m43.61 64.14h5.44v5.35h-5.44v-5.35z" fill="#79B542"/>
  <path d="m54.03 69.49h5.44v5.35h-5.44v-5.35z" fill="#79B542"/>
  <path d="m59.77 81.11h5.44v5.35h-5.44v-5.35z" fill="#579542"/>
  <path d="m65.51 70.01h5.5v5.76h4.5v10.69h-4.88v-5.35h-5.12v-11.1z" fill="#000"/>
  <path d="m76.37 70.84h4.38v4.44h-4.38v-4.44z" fill="#000"/>
  <path d="m49.31 134.5h5.92v5.35h-5.92v-5.35z" fill="#266331"/>
  <path d="m54.61 139.9h10.96v5.76h4.88v10.69h-5.34v-5.76h-5.34v-5.34h-5.16v-5.35z" fill="#579542"/>
  <path d="m54.73 150.6h4.88v21.77h-4.88v-21.77z" fill="#79B542"/>
  <path d="m60.09 129.2h5.44v5.35h-5.44v-5.35z" fill="#579542"/>
  <path d="m65.45 134.9h21.14v5.35h-15.88v4.93h-5.26v-10.28z" fill="#579542"/>
</svg>