<svg xmlns="http://www.w3.org/2000/svg" width="185" height="185" viewBox="0 0 185 185">
<!-- SVG created with Arrow, by QuiverAI (https://quiver.ai) -->
  <path d="m157.7 5v4.44h-4.44v4.45h-4.45v-4.45h-4.44v4.45h-4.44v-4.45h-5.39v4.45h-4.81v4.44h-10.04v-4.44h-4.44v4.44h-4.45v17.96h-4.44v-9.1h-4.44v-3.98h-4.44v3.98h-4.81v12.58h-4.92v-7.76h-4.44v-3.99h-4.45v4.44h-4.44v17.96h4.44v14.51h-4.44v-9.11h-4.45v-4.44h-4.44v-10.17h-4.44v-4.44h-5.39v4.44h-4.44v19.05h4.44v4.45h-4.91v4.44h4.45v8.66h-4.45v-4.45h-4.44v-3.98h-4.45v-9.12h-4.91v-4.91h-4.44v4.91h-4.44v18.42h3.98v4.91h-4.45v3.99h4.45v7.76h4.44v9.57h-3.98v-4.9h-4.91v-4.45h-4.91v-7.76h-4.91v-3.98h-4.44v3.98h-4.44v18.42h4.44v3.99h-4.44v4.91h4.44v9.58h4.44v9.11h4.91v4.45h9.58v4.44h4.45v4.45h9.59v14.51h-4.45v18.42h8.67v-4.45h3.98v-13.53h4.44v-4.44h5.83v3.98h4.44v4.45h9.13v-3.48h4.44v3.98h4.92v3.98h4.44v-3.98h4.44v3.98h4.91v-4.45h4.45v-4.12h4.44v3.98h9.13v-4.45h14.51v-4.44h4.45v-4.91h3.98v-4.44h-27.25v-3.98h-4.45v3.98h-4.44v-3.98h-9.59v-4.91h-4.44v3.99h-3.98v-3.99h-9.59v-4.44h-9.58v3.98h-4.45v-4.44h4.45v-8.66h4.44v3.98h9.59v-3.98h4.44v8.66h9.59v4.44h9.12v-4.44h4.44v3.98h9.59v-4.44h4.44v4.44h4.44v-4.44h9.13v-3.98h4.44v-9.11h-22.45v-4.44h-14.03v-4.45h9.13v-6.3h3.98v4.91h14.5v-4.44h13.59v-3.98h4.91v-4.91h-4.44v-4.44h-22.92v-4.44h22.78v-4.45h4.44v-9.11h-18.36v-4.91h14.06v-4.45h4.44v-4.91h-3.94v-3.98h3.94v-9.57h4.92v-4.45h4.44v-4.91h-3.94v-4.44h3.94v-9.57h4.44v-4.91h4.45v-4.91h4.91v-8.34h-17.93zm-56.3 78.46v-3.03h8.19v3.03h-8.19zm-36.67 4.45v-4.45h9.17v4.45h-9.17z" fill="#010202"/>
  <path d="m46.37 161.7v13.54h4.44v-13.54h-4.44z" fill="#71B54F"/>
  <path d="m50.81 161.7v-13.99h4.45v13.99h-4.45z" fill="#51984A"/>
  <path d="m55.26 147.2v-3.98h4.44v3.98h-4.44z" fill="#51984A"/>
  <path d="m60.17 147.2v4.44h9.11v9.57h8.67v-9.57h9.13v-4.44h-17.85v-3.98h-9.06v3.98z" fill="#51984A"/>
  <path d="m73.62 143.2v4.45h4.44v-4.45h-4.44z" fill="#51984A"/>
  <path d="m78.53 143.2v4.45h9.13v-4.45h-9.13z" fill="#71B54F"/>
  <path d="m87.65 147.2v4.45h14.03v4.44h-4.44v9.57h-4.91v-5.85h-4.91v5.85h-3.98v-14.01h4.44v-4.45h-0.23z" fill="#51984A"/>
  <path d="m92.1 147.2v4.44h4.44v-4.44h-4.44z" fill="#51984A"/>
  <path d="m96.54 147.2v-3.98h9.13v3.98h-9.13z" fill="#010202"/>
  <path d="m110.4 147.2v4.45h4.44v-4.45h-4.44z" fill="#51984A"/>
  <path d="m115.3 151.7v4.44h18.35v-4.44h-18.35z" fill="#71B54F"/>
  <path d="m110.4 156.1v4.45h9.13v-4.45h-9.13z" fill="#51984A"/>
  <path d="m101.3 159.1v6.3h4.44v-6.3h-4.44z" fill="#71B54F"/>
  <path d="m13.4 87.8v18.42h4.44v-4.91h4.44v-13.51h-8.88z" fill="#71B54F"/>
  <path d="m17.84 105.8v4.44h-4.44v4.45h9.12v-13.35h-4.68v4.46z" fill="#386A41"/>
  <path d="m22.75 101.7v8.51h4.44v-8.51h-4.44z" fill="#71B54F"/>
  <path d="m27.19 110.2v9.11h-4.44v4.45h9.13v-9.11h4.44v-4.45h-4.44v3.98h-4.69z" fill="#51984A"/>
  <path d="m17.84 120.2v4.44h9.13v-4.44h-9.13z" fill="#010202"/>
  <path d="m26.97 124.2v4.44h-4.45v4.45h9.59v-4.45h4.44v-4.44h-4.44v3.98h-5.14v-3.98z" fill="#386A41"/>
  <path d="m36.03 133.3v4.45h4.44v-4.45h-4.44z" fill="#386A41"/>
  <path d="m36.55 137.7v4.44h9.59v4.45h4.45v-4.45h4.44v-4.44h-8.62v-4.45h-5v4.45h-4.86z" fill="#71B54F"/>
  <path d="m45.68 133.3v4.45h4.44v-4.45h-4.44z" fill="#51984A"/>
  <path d="m50.59 128.8v4.44h4.44v4.45h4.45v-9.12h-4.45v3.99h-4.44v-3.76z" fill="#386A41"/>
  <path d="m59.48 128.1v9.58h4.44v-9.58h-4.44z" fill="#51984A"/>
  <path d="m59.48 123.7v4.44h4.44v-4.44h-4.44z" fill="#71B54F"/>
  <path d="m59.48 118.8v4.44h4.44v-4.44h-4.44z" fill="#71B54F"/>
  <path d="m50.81 114.3v4.45h4.45v4.91h4.44v-9.36h-4.44v-4.13h-4.45v4.13z" fill="#386A41"/>
  <path d="m41.23 105.7v3.98h9.13v4.44h4.44v-8.42h-4.91v-3.98h-8.66v3.98z" fill="#386A41"/>
  <path d="m32.57 87.73v3.98h8.66v4.45h-4.45v4.44h9.59v-4.44h4.44v-8.36h-4.91v4.45h-4.44v-4.45h-8.89v-0.07z" fill="#51984A"/>
  <path d="m32.11 83.28v3.98h9.12v-3.98h-9.12z" fill="#71B54F"/>
  <path d="m36.03 74.17v8.66h4.44v4.45h5.38v-8.66h-4.44v-4.45h-5.38z" fill="#386A41"/>
  <path d="m32.11 60.26v17.96h4.44v-4.9h4.91v-3.99h-4.91v-9.07h-4.44z" fill="#386A41"/>
  <path d="m45.68 73.81v4.45h4.44v-4.45h-4.44z" fill="#51984A"/>
  <path d="m50.12 78.26v9.11h4.45v-9.11h-4.45z" fill="#71B54F"/>
  <path d="m54.57 87.8v8.66h4.44v-8.66h-4.44z" fill="#386A41"/>
  <path d="m59.01 92.25v8.2h4.45v3.98h4.91v-3.98h-3.48v-8.2h-5.88z" fill="#386A41"/>
  <path d="m55.03 100.9v8.66h4.45v-3.97h4.44v3.98h4.45v-4.45h-4.45v-4.44h-4.44v-3.98h-4.45v4.2z" fill="#51984A"/>
  <path d="m59.48 105.8v4.44h4.44v-4.44h-4.44z" fill="#71B54F"/>
  <path d="m64.39 110.2v9.11h4.44v-8.26h-4.44v-0.85z" fill="#51984A"/>
  <path d="m68.83 100.9v8.66h4.44v-8.66h-4.44z" fill="#71B54F"/>
  <path d="m68.37 87.91v4.44h4.44v8.56h4.45v-13h-8.89z" fill="#010202"/>
  <path d="m60.64 78.26v9.11h4.44v-3.99h8.67v-5.12h-4.44v3.98h-8.67z" fill="#386A41"/>
  <path d="m59.7 69.15v4.44h4.44v3.99h5.83v-4.45h3.98v-8.2h-4.67v4.22h-9.58z" fill="#386A41"/>
  <path d="m55.72 60.04v4.45h4.45v4.51h4.44v-8.96h-4.91v-4.45h-3.98v4.45z" fill="#386A41"/>
  <path d="m55.26 41.66v13.53h4.44v-4.91h3.98v-8.66h-4.44v4.91h-3.98v-4.87z" fill="#386A41"/>
  <path d="m60.17 50.77v4.45h4.44v-4.45h-4.44z" fill="#71B54F"/>
  <path d="m64.61 55.68v9.11h4.44v-9.11h-4.44z" fill="#51984A"/>
  <path d="m69.05 64.8v9.11h4.44v4.45h3.98v-9.57h-4.44v-3.99h-3.98z" fill="#51984A"/>
  <path d="m77.72 32.91v17.51h4.44v-17.51h-4.44z" fill="#010202"/>
  <path d="m82.63 32.91v8.66h4.44v-8.66h-4.44z" fill="#386A41"/>
  <path d="m82.16 41.12v9.11h4.45v4.91h4.44v-4.91h-3.98v-9.11h-4.91z" fill="#51984A"/>
  <path d="m81.71 50.7v14.01h4.44v-14.01h-4.44z" fill="#386A41"/>
  <path d="m86.62 55.61v9.11h4.45v-9.11h-4.45z" fill="#51984A"/>
  <path d="m86.62 64.72v4.45h4.45v-4.45h-4.45z" fill="#71B54F"/>
  <path d="m86.62 69.63v4.45h4.45v-4.45h-4.45z" fill="#010202"/>
  <path d="m78.39 69.17v9.11h9.13v-3.98h-4.91v-5.13h-4.22z" fill="#010202"/>
  <path d="m87.07 73.62v4.44h4.44v-4.44h-4.44z" fill="#51984A"/>
  <path d="m87.52 78.53v4.44h4.44v-4.44h-4.44z" fill="#386A41"/>
  <path d="m92.43 27.64v13.53h4.44v-13.53h-4.44z" fill="#010202"/>
  <path d="m97.34 27.64v8.65h4.44v-8.65h-4.44z" fill="#71B54F"/>
  <path d="m96.87 36.74v4.44h4.45v18.86h-4.45v4.45h4.45v-3.98h4.44v-23.84h-4.44v0.07h-4.45z" fill="#386A41"/>
  <path d="m106.2 41.18v4.91h4.45v-4.91h-4.45z" fill="#010202"/>
  <path d="m105.8 46.09v4.91h4.44v-4.91h-4.44z" fill="#71B54F"/>
  <path d="m110.2 50.54v4.44h4.45v-4.44h-4.45z" fill="#51984A"/>
  <path d="m114.6 46.09v4.45h4.44v-4.45h-4.44z" fill="#386A41"/>
  <path d="m119.1 41.18v4.91h4.44v-4.91h-4.44z" fill="#71B54F"/>
  <path d="m119.1 32.52v4.45h4.44v4.45h4.45v-5.4h-4.45v-3.5h-4.44z" fill="#386A41"/>
  <path d="m115.1 18.33v13.98h3.98v-13.98h-3.98z" fill="#71B54F"/>
  <path d="m128.9 18.77v13.99h4.91v-13.99h-4.91z" fill="#51984A"/>
  <path d="m133.3 13.86v4.45h4.44v-4.45h-4.44z" fill="#71B54F"/>
  <path d="m137.8 13.89v4.44h-3.97v9.11h4.44v-3.98h4.44v-9.57h-4.91z" fill="#010202"/>
  <path d="m142.7 13.89v13.53h4.44v-13.53h-4.44z" fill="#51984A"/>
  <path d="m147.1 22.99v4.45h4.44v-4.45h-4.44z" fill="#71B54F"/>
  <path d="m151.6 13.89v4.44h4.44v-4.44h-4.44z" fill="#386A41"/>
  <path d="m156.5 10.36v4.44h4.45v-4.44h-4.45z" fill="#51984A"/>
  <path d="m156.8 10.36v4.44h13.54v-4.44h-13.54z" fill="#51984A"/>
  <path d="m165.5 14.34v4.45h4.44v-4.45h-4.44z" fill="#386A41"/>
  <path d="m156.5 14.8v4.45h4.91v-4.45h-4.91z" fill="#71B54F"/>
  <path d="m151.6 22.99v4.45h8.19v-4.45h-8.19z" fill="#010202"/>
  <path d="m147.1 27.44v4.44h9.13v-4.44h-9.13z" fill="#51984A"/>
  <path d="m142.2 27.44v4.44h4.44v-4.44h-4.44z" fill="#71B54F"/>
  <path d="m133.1 31.88v4.45h4.45v-4.45h-4.45z" fill="#71B54F"/>
  <path d="m137.5 36.33v4.44h19.73v-4.44h-19.73z" fill="#51984A"/>
  <path d="m128.4 40.31v4.45h28.62v-4.45h-28.62z" fill="#010202"/>
  <path d="m124 45.22v4.44h23.3v-4.44h-23.3z" fill="#71B54F"/>
  <path d="m119.5 50.13v4.44h30.93v-4.44h-30.93z" fill="#010202"/>
  <path d="m114.6 54.57v4.45h14.03v1.29h18.81v-4.45h-18.35v-1.29h-14.49z" fill="#010202"/>
  <path d="m105.5 55.02v4.44h4.91v-4.44h-4.91z" fill="#51984A"/>
  <path d="m105.5 59.46v4.91h41.97v-4.44h-23.3v-0.47h-9.13v-0.44h-4.9v0.44h-4.64z" fill="#51984A"/>
  <path d="m96.34 64.37v4.45h4.44v-4.45h-4.44z" fill="#71B54F"/>
  <path d="m96.34 68.82v4.44h9.13v0.4h14.07v-4.91h-14.07v0.07h-9.13z" fill="#386A41"/>
  <path d="m109.9 69.68v8.53h14.07v-8.53h-14.07z" fill="#51984A"/>
  <path d="m123.5 74.59v6.31h24.21v-3.56h-14.07v-2.75h-10.14z" fill="#71B54F"/>
  <path d="m114.3 83.46v4.45h9.59v-4.45h-9.59z" fill="#FEFFFE"/>
  <path d="m114.3 92.12v4.45h9.59v-4.45h-9.59z" fill="#51984A"/>
  <path d="m114.3 97.03v4.91h4.45v3.54h4.91v-3.98h3.98v3.98h4.44v-5.4h15.42v-3.51h-23.7v0.46h-9.5z" fill="#386A41"/>
  <path d="m100.7 87.46v4.91h14.03v-4.91h-14.03z" fill="#71B54F"/>
  <path d="m82.38 87.01v5.34h18.83v-5.34h-9.59v-3.98h-4.44v3.98h-4.8z" fill="#386A41"/>
  <path d="m83.33 92.35v4.44h6.81v3.99h6.66v-3.99h-6.76v-4.44h-6.71z" fill="#010202"/>
  <path d="m100.8 96.79v3.98h-3.98v4.45h4.91v-3.98h3.98v-4.45h-4.91z" fill="#010202"/>
  <path d="m105.7 96.79v8.66h9.13v-8.66h-9.13z" fill="#51984A"/>
  <path d="m78.88 105.9v4.44h8.67v-4.44h-8.67z" fill="#71B54F"/>
  <path d="m87.55 105.9v4.44h9.13v-4.44h-9.13z" fill="#010202"/>
  <path d="m96.24 106.2v4.45h9.59v-4.45h-9.59z" fill="#010202"/>
  <path d="m87.08 110.2v4.44h9.58v-4.44h-9.58z" fill="#386A41"/>
  <path d="m74.06 115.5v9.11h9.13v-9.11h-9.13z" fill="#51984A"/>
  <path d="m92.39 115.1v4.45h13.53v-4.45h-13.53z" fill="#386A41"/>
  <path d="m105.9 116.4v4.44h14.03v-4.44h-14.03z" fill="#010202"/>
  <path d="m106.4 121.3v4.45h9.13v3.98h4.91v-4.45h17.58v-4.44h-17.93v0.46h-13.69z" fill="#386A41"/>
  <path d="m128.3 125.8v4.44h9.59v-4.44h-9.59z" fill="#010202"/>
  <path d="m105.9 125.8v4.44h4.44v4.45h4.91v-4.91h4.45v3.53h3.99v-3.98h3.98v-3.53h-21.77z" fill="#51984A"/>
  <path d="m87.52 120.4v3.97h4.44v3.99h4.45v-3.99h4.91v9.12h3.97v-4.91h0.18v-4.44h-8.66v-3.74h-9.29z" fill="#386A41"/>
  <path d="m32.11 123.7v4.44h8.67v4.45h9.58v-4.45h-4.44v-7.74h-4.44v3.3h-9.37z" fill="#386A41"/>
</svg>