<svg xmlns="http://www.w3.org/2000/svg" 
            xmlns:xlink="http://www.w3.org/1999/xlink"
            width="644"
            height="255"
            viewBox="0 0 644 255"
            version="1.1">
            <metadata>
                <rdf:RDF xmlns:rdf="http://www.w3.org/1999/02/22-rdf-syntax-ns#"
                         xmlns:rdfs="http://www.w3.org/2000/01/rdf-schema#"
                         xmlns:dc="http://purl.org/dc/elements/1.1/">
                    <rdf:Description>
                        <dc:title>Pixel Art SVG</dc:title>
                        <dc:creator>ImageToSVGPixelArt</dc:creator>
                        <dc:description>Generated pixel art in SVG format</dc:description>
                    </rdf:Description>
                </rdf:RDF>
            </metadata><g fill="rgb(255, 255, 255)"><rect x="378" y="63" width="7" height="7" /><rect x="399" y="63" width="7" height="7" /><rect x="427" y="70" width="7" height="7" /><rect x="329" y="77" width="7" height="7" /><rect x="434" y="77" width="7" height="7" /><rect x="238" y="98" width="7" height="7" /><rect x="301" y="98" width="7" height="7" /><rect x="441" y="98" width="7" height="7" /><rect x="448" y="105" width="7" height="7" /><rect x="140" y="112" width="7" height="7" /><rect x="259" y="112" width="7" height="7" /><rect x="133" y="126" width="7" height="7" /><rect x="497" y="126" width="7" height="7" /><rect x="98" y="133" width="7" height="7" /><rect x="126" y="133" width="7" height="7" /><rect x="77" y="154" width="7" height="14" /><rect x="532" y="161" width="7" height="7" /><rect x="539" y="168" width="7" height="7" /><rect x="63" y="175" width="7" height="7" /><rect x="189" y="182" width="7" height="7" /><rect x="231" y="182" width="7" height="7" /><rect x="329" y="182" width="7" height="7" /><rect x="301" y="189" width="7" height="7" /><rect x="126" y="196" width="7" height="7" /><rect x="252" y="196" width="7" height="7" /><rect x="448" y="196" width="14" height="7" /><rect x="420" y="210" width="7" height="7" /></g><g fill="rgb(153, 170, 170)"><rect x="385" y="63" width="7" height="7" /><rect x="147" y="126" width="7" height="7" /><rect x="105" y="133" width="7" height="7" /><rect x="182" y="133" width="7" height="7" /><rect x="455" y="140" width="7" height="7" /><rect x="259" y="147" width="7" height="7" /><rect x="112" y="154" width="7" height="7" /><rect x="455" y="154" width="7" height="7" /><rect x="147" y="168" width="7" height="7" /><rect x="357" y="168" width="7" height="7" /><rect x="343" y="189" width="7" height="7" /><rect x="504" y="203" width="7" height="7" /><rect x="413" y="210" width="7" height="7" /></g><g fill="rgb(170, 170, 188)"><rect x="392" y="63" width="7" height="7" /></g><g fill="rgb(136, 153, 153)"><rect x="364" y="70" width="7" height="7" /><rect x="161" y="98" width="7" height="7" /><rect x="154" y="105" width="7" height="7" /><rect x="245" y="112" width="7" height="7" /><rect x="336" y="119" width="7" height="7" /><rect x="203" y="126" width="7" height="7" /><rect x="266" y="126" width="7" height="7" /><rect x="280" y="126" width="7" height="7" /><rect x="154" y="133" width="7" height="7" /><rect x="140" y="140" width="7" height="7" /><rect x="287" y="147" width="7" height="7" /><rect x="161" y="154" width="7" height="7" /><rect x="252" y="154" width="7" height="7" /><rect x="483" y="154" width="7" height="7" /><rect x="245" y="161" width="7" height="7" /><rect x="308" y="161" width="7" height="7" /><rect x="427" y="161" width="7" height="7" /><rect x="273" y="168" width="7" height="7" /><rect x="315" y="168" width="7" height="7" /><rect x="448" y="168" width="7" height="7" /><rect x="84" y="175" width="7" height="7" /><rect x="315" y="175" width="7" height="7" /><rect x="441" y="175" width="7" height="7" /><rect x="462" y="175" width="7" height="7" /><rect x="77" y="182" width="7" height="7" /><rect x="399" y="182" width="7" height="7" /><rect x="140" y="189" width="7" height="7" /><rect x="315" y="189" width="7" height="7" /></g><g fill="rgb(119, 153, 153)"><rect x="371" y="70" width="42" height="7" /><rect x="343" y="77" width="14" height="7" /><rect x="371" y="77" width="7" height="7" /><rect x="392" y="77" width="35" height="7" /><rect x="329" y="84" width="84" height="7" /><rect x="322" y="91" width="7" height="7" /><rect x="336" y="91" width="63" height="7" /><rect x="168" y="98" width="7" height="7" /><rect x="182" y="98" width="42" height="7" /><rect x="315" y="98" width="77" height="7" /><rect x="161" y="105" width="63" height="7" /><rect x="301" y="105" width="49" height="7" /><rect x="357" y="105" width="35" height="7" /><rect x="441" y="105" width="7" height="7" /><rect x="154" y="112" width="70" height="7" /><rect x="273" y="112" width="14" height="7" /><rect x="301" y="112" width="35" height="7" /><rect x="350" y="112" width="42" height="7" /><rect x="434" y="112" width="7" height="7" /><rect x="462" y="112" width="14" height="7" /><rect x="140" y="119" width="77" height="7" /><rect x="259" y="119" width="28" height="7" /><rect x="294" y="119" width="28" height="7" /><rect x="343" y="119" width="56" height="7" /><rect x="420" y="119" width="7" height="7" /><rect x="455" y="119" width="7" height="7" /><rect x="469" y="119" width="21" height="7" /><rect x="140" y="126" width="7" height="7" /><rect x="154" y="126" width="49" height="7" /><rect x="273" y="126" width="7" height="7" /><rect x="294" y="126" width="35" height="7" /><rect x="336" y="126" width="63" height="7" /><rect x="441" y="126" width="7" height="7" /><rect x="455" y="126" width="35" height="7" /><rect x="140" y="133" width="14" height="7" /><rect x="168" y="133" width="7" height="7" /><rect x="245" y="133" width="7" height="7" /><rect x="294" y="133" width="35" height="7" /><rect x="336" y="133" width="63" height="7" /><rect x="441" y="133" width="7" height="7" /><rect x="455" y="133" width="28" height="7" /><rect x="112" y="140" width="7" height="7" /><rect x="126" y="140" width="7" height="7" /><rect x="147" y="140" width="14" height="7" /><rect x="217" y="140" width="7" height="7" /><rect x="294" y="140" width="35" height="7" /><rect x="336" y="140" width="63" height="7" /><rect x="441" y="140" width="14" height="7" /><rect x="462" y="140" width="21" height="7" /><rect x="98" y="147" width="7" height="7" /><rect x="112" y="147" width="7" height="7" /><rect x="140" y="147" width="21" height="7" /><rect x="266" y="147" width="21" height="7" /><rect x="301" y="147" width="28" height="7" /><rect x="336" y="147" width="42" height="7" /><rect x="385" y="147" width="14" height="7" /><rect x="434" y="147" width="56" height="7" /><rect x="84" y="154" width="21" height="7" /><rect x="147" y="154" width="14" height="7" /><rect x="259" y="154" width="35" height="7" /><rect x="315" y="154" width="14" height="7" /><rect x="336" y="154" width="35" height="7" /><rect x="392" y="154" width="7" height="7" /><rect x="434" y="154" width="21" height="7" /><rect x="84" y="161" width="28" height="7" /><rect x="154" y="161" width="7" height="7" /><rect x="252" y="161" width="42" height="7" /><rect x="315" y="161" width="49" height="7" /><rect x="371" y="161" width="14" height="7" /><rect x="434" y="161" width="21" height="7" /><rect x="84" y="168" width="21" height="7" /><rect x="112" y="168" width="7" height="7" /><rect x="154" y="168" width="14" height="7" /><rect x="252" y="168" width="21" height="7" /><rect x="280" y="168" width="7" height="7" /><rect x="322" y="168" width="35" height="7" /><rect x="364" y="168" width="14" height="7" /><rect x="413" y="168" width="28" height="7" /><rect x="518" y="168" width="14" height="7" /><rect x="70" y="175" width="14" height="7" /><rect x="91" y="175" width="28" height="7" /><rect x="140" y="175" width="28" height="7" /><rect x="252" y="175" width="7" height="7" /><rect x="329" y="175" width="14" height="7" /><rect x="350" y="175" width="14" height="7" /><rect x="399" y="175" width="42" height="7" /><rect x="504" y="175" width="28" height="7" /><rect x="70" y="182" width="7" height="7" /><rect x="105" y="182" width="14" height="7" /><rect x="140" y="182" width="28" height="7" /><rect x="238" y="182" width="21" height="7" /><rect x="364" y="182" width="14" height="7" /><rect x="406" y="182" width="14" height="7" /><rect x="427" y="182" width="7" height="7" /><rect x="497" y="182" width="14" height="7" /><rect x="518" y="182" width="7" height="7" /><rect x="133" y="189" width="7" height="7" /><rect x="252" y="189" width="7" height="7" /><rect x="350" y="189" width="7" height="7" /><rect x="364" y="189" width="14" height="7" /><rect x="392" y="189" width="14" height="7" /><rect x="497" y="189" width="14" height="7" /><rect x="392" y="196" width="28" height="7" /><rect x="504" y="196" width="14" height="7" /><rect x="406" y="203" width="7" height="7" /></g><g fill="rgb(136, 136, 153)"><rect x="413" y="70" width="7" height="7" /><rect x="315" y="91" width="7" height="7" /><rect x="329" y="91" width="7" height="7" /><rect x="175" y="98" width="7" height="7" /><rect x="245" y="175" width="7" height="7" /><rect x="322" y="175" width="7" height="7" /><rect x="63" y="182" width="7" height="7" /><rect x="350" y="182" width="7" height="7" /><rect x="469" y="196" width="7" height="7" /><rect x="483" y="196" width="7" height="7" /></g><g fill="rgb(170, 187, 187)"><rect x="420" y="70" width="7" height="7" /><rect x="112" y="133" width="7" height="7" /></g><g fill="rgb(119, 135, 152)"><rect x="336" y="77" width="7" height="7" /><rect x="147" y="112" width="7" height="7" /></g><g fill="rgb(119, 136, 153)"><rect x="357" y="77" width="7" height="7" /><rect x="378" y="77" width="14" height="7" /><rect x="210" y="91" width="14" height="7" /><rect x="224" y="98" width="7" height="7" /><rect x="308" y="98" width="7" height="7" /><rect x="392" y="98" width="7" height="14" /><rect x="476" y="112" width="7" height="7" /><rect x="252" y="119" width="7" height="7" /><rect x="322" y="119" width="7" height="7" /><rect x="462" y="119" width="7" height="7" /><rect x="259" y="126" width="7" height="7" /><rect x="210" y="133" width="7" height="7" /><rect x="105" y="140" width="7" height="7" /><rect x="119" y="140" width="7" height="7" /><rect x="133" y="140" width="7" height="7" /><rect x="238" y="140" width="7" height="7" /><rect x="434" y="140" width="7" height="7" /><rect x="329" y="147" width="7" height="7" /><rect x="105" y="154" width="7" height="7" /><rect x="308" y="154" width="7" height="7" /><rect x="105" y="168" width="7" height="7" /><rect x="406" y="168" width="7" height="7" /><rect x="441" y="168" width="7" height="7" /><rect x="511" y="168" width="7" height="7" /><rect x="532" y="168" width="7" height="7" /><rect x="238" y="175" width="7" height="7" /><rect x="91" y="182" width="7" height="7" /><rect x="420" y="182" width="7" height="7" /><rect x="434" y="182" width="7" height="7" /><rect x="357" y="189" width="7" height="7" /><rect x="420" y="189" width="7" height="7" /><rect x="511" y="189" width="7" height="7" /><rect x="392" y="203" width="14" height="7" /></g><g fill="rgb(68, 102, 102)"><rect x="364" y="77" width="7" height="7" /><rect x="399" y="91" width="7" height="7" /><rect x="245" y="126" width="7" height="7" /><rect x="119" y="147" width="7" height="7" /><rect x="252" y="147" width="7" height="7" /><rect x="294" y="147" width="7" height="7" /><rect x="224" y="154" width="7" height="7" /><rect x="427" y="154" width="7" height="7" /><rect x="238" y="161" width="7" height="7" /><rect x="217" y="168" width="7" height="7" /><rect x="308" y="168" width="7" height="7" /><rect x="224" y="175" width="7" height="7" /><rect x="259" y="182" width="7" height="7" /><rect x="378" y="182" width="7" height="7" /><rect x="322" y="189" width="7" height="7" /><rect x="518" y="189" width="7" height="7" /></g><g fill="rgb(68, 85, 102)"><rect x="427" y="77" width="7" height="7" /><rect x="420" y="84" width="14" height="7" /><rect x="406" y="91" width="35" height="7" /><rect x="231" y="98" width="7" height="7" /><rect x="399" y="98" width="42" height="7" /><rect x="231" y="105" width="14" height="7" /><rect x="399" y="105" width="42" height="7" /><rect x="224" y="112" width="21" height="7" /><rect x="399" y="112" width="35" height="7" /><rect x="441" y="112" width="7" height="7" /><rect x="224" y="119" width="28" height="7" /><rect x="287" y="119" width="7" height="7" /><rect x="329" y="119" width="7" height="7" /><rect x="399" y="119" width="21" height="7" /><rect x="427" y="119" width="21" height="7" /><rect x="217" y="126" width="28" height="7" /><rect x="287" y="126" width="7" height="7" /><rect x="329" y="126" width="7" height="7" /><rect x="399" y="126" width="42" height="7" /><rect x="490" y="126" width="7" height="7" /><rect x="217" y="133" width="28" height="7" /><rect x="252" y="133" width="7" height="7" /><rect x="273" y="133" width="21" height="7" /><rect x="329" y="133" width="7" height="7" /><rect x="399" y="133" width="42" height="7" /><rect x="483" y="133" width="14" height="7" /><rect x="224" y="140" width="14" height="7" /><rect x="245" y="140" width="14" height="7" /><rect x="266" y="140" width="28" height="7" /><rect x="329" y="140" width="7" height="7" /><rect x="399" y="140" width="35" height="7" /><rect x="490" y="140" width="28" height="7" /><rect x="126" y="147" width="14" height="7" /><rect x="224" y="147" width="28" height="7" /><rect x="399" y="147" width="35" height="7" /><rect x="490" y="147" width="28" height="7" /><rect x="119" y="154" width="28" height="7" /><rect x="231" y="154" width="14" height="7" /><rect x="294" y="154" width="14" height="7" /><rect x="371" y="154" width="21" height="7" /><rect x="399" y="154" width="28" height="7" /><rect x="490" y="154" width="28" height="7" /><rect x="119" y="161" width="28" height="7" /><rect x="189" y="161" width="7" height="7" /><rect x="231" y="161" width="7" height="7" /><rect x="294" y="161" width="14" height="7" /><rect x="364" y="161" width="7" height="7" /><rect x="385" y="161" width="42" height="7" /><rect x="490" y="161" width="28" height="7" /><rect x="119" y="168" width="28" height="7" /><rect x="189" y="168" width="7" height="7" /><rect x="224" y="168" width="14" height="7" /><rect x="287" y="168" width="21" height="7" /><rect x="385" y="168" width="21" height="7" /><rect x="490" y="168" width="21" height="7" /><rect x="119" y="175" width="21" height="7" /><rect x="168" y="175" width="7" height="7" /><rect x="231" y="175" width="7" height="7" /><rect x="280" y="175" width="35" height="7" /><rect x="371" y="175" width="28" height="7" /><rect x="490" y="175" width="7" height="7" /><rect x="532" y="175" width="7" height="7" /><rect x="84" y="182" width="7" height="7" /><rect x="98" y="182" width="7" height="7" /><rect x="119" y="182" width="14" height="7" /><rect x="168" y="182" width="7" height="7" /><rect x="287" y="182" width="21" height="7" /><rect x="385" y="182" width="7" height="7" /><rect x="441" y="182" width="7" height="7" /><rect x="490" y="182" width="7" height="7" /><rect x="532" y="182" width="14" height="7" /><rect x="77" y="189" width="14" height="7" /><rect x="154" y="189" width="21" height="7" /><rect x="287" y="189" width="7" height="7" /><rect x="329" y="189" width="7" height="7" /><rect x="378" y="189" width="7" height="7" /><rect x="427" y="189" width="21" height="7" /><rect x="483" y="189" width="14" height="7" /><rect x="525" y="189" width="21" height="7" /><rect x="140" y="196" width="21" height="7" /><rect x="420" y="196" width="28" height="7" /><rect x="518" y="196" width="28" height="7" /><rect x="413" y="203" width="28" height="7" /><rect x="518" y="203" width="7" height="7" /></g><g fill="rgb(171, 171, 171)"><rect x="322" y="84" width="7" height="7" /></g><g fill="rgb(85, 102, 119)"><rect x="413" y="84" width="7" height="7" /><rect x="245" y="154" width="7" height="7" /><rect x="378" y="168" width="7" height="7" /><rect x="273" y="175" width="7" height="7" /><rect x="483" y="182" width="7" height="7" /></g><g fill="rgb(171, 171, 188)"><rect x="434" y="84" width="7" height="7" /></g><g fill="rgb(223, 223, 223)"><rect x="189" y="91" width="7" height="7" /></g><g fill="rgb(170, 170, 170)"><rect x="196" y="91" width="7" height="7" /></g><g fill="rgb(135, 152, 152)"><rect x="203" y="91" width="7" height="7" /><rect x="266" y="112" width="7" height="7" /><rect x="294" y="112" width="7" height="7" /><rect x="315" y="182" width="7" height="7" /><rect x="343" y="182" width="7" height="7" /></g><g fill="rgb(137, 152, 152)"><rect x="224" y="91" width="7" height="7" /><rect x="245" y="189" width="7" height="7" /></g><g fill="rgb(102, 136, 136)"><rect x="224" y="105" width="7" height="7" /><rect x="476" y="154" width="7" height="7" /><rect x="266" y="175" width="7" height="7" /><rect x="525" y="182" width="7" height="7" /></g><g fill="rgb(205, 223, 223)"><rect x="294" y="105" width="7" height="7" /></g><g fill="rgb(102, 119, 136)"><rect x="350" y="105" width="7" height="7" /><rect x="336" y="112" width="7" height="7" /><rect x="217" y="119" width="7" height="7" /><rect x="252" y="126" width="7" height="7" /><rect x="203" y="133" width="7" height="7" /><rect x="259" y="133" width="14" height="7" /><rect x="168" y="140" width="49" height="7" /><rect x="259" y="140" width="7" height="7" /><rect x="168" y="147" width="56" height="7" /><rect x="168" y="154" width="56" height="7" /><rect x="462" y="154" width="14" height="7" /><rect x="147" y="161" width="7" height="7" /><rect x="161" y="161" width="28" height="7" /><rect x="196" y="161" width="14" height="7" /><rect x="462" y="161" width="28" height="7" /><rect x="168" y="168" width="21" height="7" /><rect x="196" y="168" width="7" height="7" /><rect x="455" y="168" width="35" height="7" /><rect x="175" y="175" width="42" height="7" /><rect x="448" y="175" width="14" height="7" /><rect x="469" y="175" width="21" height="7" /><rect x="497" y="175" width="7" height="7" /><rect x="266" y="182" width="21" height="7" /><rect x="448" y="182" width="35" height="7" /><rect x="147" y="189" width="7" height="7" /><rect x="259" y="189" width="28" height="7" /><rect x="448" y="189" width="35" height="7" /></g><g fill="rgb(207, 207, 223)"><rect x="462" y="105" width="7" height="7" /></g><g fill="rgb(229, 229, 229)"><rect x="469" y="105" width="7" height="7" /></g><g fill="rgb(153, 153, 170)"><rect x="287" y="112" width="7" height="7" /><rect x="518" y="161" width="7" height="7" /></g><g fill="rgb(119, 136, 136)"><rect x="343" y="112" width="7" height="7" /><rect x="196" y="133" width="7" height="7" /></g><g fill="rgb(85, 119, 119)"><rect x="392" y="112" width="7" height="7" /></g><g fill="rgb(239, 239, 239)"><rect x="448" y="112" width="7" height="7" /><rect x="546" y="196" width="7" height="7" /></g><g fill="rgb(153, 169, 186)"><rect x="455" y="112" width="7" height="7" /></g><g fill="rgb(135, 135, 135)"><rect x="483" y="112" width="7" height="7" /></g><g fill="rgb(153, 170, 187)"><rect x="448" y="119" width="7" height="7" /><rect x="210" y="126" width="7" height="7" /><rect x="448" y="126" width="7" height="7" /><rect x="161" y="133" width="7" height="7" /><rect x="175" y="133" width="7" height="7" /><rect x="189" y="133" width="7" height="7" /><rect x="98" y="140" width="7" height="7" /><rect x="161" y="140" width="7" height="7" /><rect x="105" y="147" width="7" height="7" /><rect x="161" y="147" width="7" height="7" /><rect x="112" y="161" width="7" height="7" /><rect x="210" y="161" width="14" height="7" /><rect x="455" y="161" width="7" height="7" /><rect x="203" y="168" width="14" height="7" /><rect x="245" y="168" width="7" height="7" /><rect x="133" y="182" width="7" height="7" /><rect x="357" y="182" width="7" height="7" /><rect x="392" y="182" width="7" height="7" /><rect x="385" y="189" width="7" height="7" /></g><g fill="rgb(101, 101, 120)"><rect x="490" y="119" width="7" height="7" /></g><g fill="rgb(221, 221, 238)"><rect x="119" y="133" width="7" height="7" /></g><g fill="rgb(187, 187, 187)"><rect x="133" y="133" width="7" height="7" /></g><g fill="rgb(136, 153, 170)"><rect x="448" y="133" width="7" height="7" /><rect x="91" y="147" width="7" height="7" /><rect x="238" y="168" width="7" height="7" /><rect x="343" y="175" width="7" height="7" /><rect x="364" y="175" width="7" height="7" /><rect x="511" y="182" width="7" height="7" /></g><g fill="rgb(68, 102, 119)"><rect x="497" y="133" width="7" height="7" /></g><g fill="rgb(242, 242, 255)"><rect x="504" y="133" width="7" height="7" /></g><g fill="rgb(240, 240, 240)"><rect x="91" y="140" width="7" height="7" /><rect x="91" y="189" width="7" height="7" /></g><g fill="rgb(85, 102, 102)"><rect x="483" y="140" width="7" height="7" /><rect x="329" y="154" width="7" height="7" /><rect x="217" y="175" width="7" height="7" /><rect x="322" y="196" width="7" height="7" /><rect x="525" y="203" width="7" height="7" /></g><g fill="rgb(224, 224, 241)"><rect x="84" y="147" width="7" height="7" /></g><g fill="rgb(102, 119, 119)"><rect x="378" y="147" width="7" height="7" /><rect x="259" y="175" width="7" height="7" /><rect x="210" y="182" width="7" height="7" /><rect x="371" y="196" width="7" height="7" /></g><g fill="rgb(244, 244, 255)"><rect x="518" y="154" width="7" height="7" /></g><g fill="rgb(136, 170, 170)"><rect x="224" y="161" width="7" height="7" /><rect x="406" y="189" width="14" height="7" /></g><g fill="rgb(206, 222, 222)"><rect x="525" y="161" width="7" height="7" /></g><g fill="rgb(154, 171, 171)"><rect x="77" y="168" width="7" height="7" /></g><g fill="rgb(68, 85, 101)"><rect x="539" y="175" width="7" height="7" /><rect x="175" y="182" width="7" height="7" /></g><g fill="rgb(155, 170, 170)"><rect x="196" y="182" width="7" height="7" /></g><g fill="rgb(119, 135, 135)"><rect x="203" y="182" width="7" height="7" /></g><g fill="rgb(68, 85, 85)"><rect x="217" y="182" width="7" height="7" /></g><g fill="rgb(155, 171, 171)"><rect x="224" y="182" width="7" height="7" /></g><g fill="rgb(241, 241, 255)"><rect x="308" y="182" width="7" height="7" /></g><g fill="rgb(135, 135, 152)"><rect x="322" y="182" width="7" height="7" /><rect x="511" y="203" width="7" height="7" /></g><g fill="rgb(187, 204, 204)"><rect x="546" y="182" width="7" height="7" /></g><g fill="rgb(191, 191, 204)"><rect x="63" y="189" width="7" height="7" /></g><g fill="rgb(67, 84, 101)"><rect x="70" y="189" width="7" height="7" /><rect x="161" y="196" width="7" height="7" /></g><g fill="rgb(137, 153, 153)"><rect x="112" y="189" width="7" height="7" /></g><g fill="rgb(204, 225, 225)"><rect x="119" y="189" width="7" height="7" /></g><g fill="rgb(118, 136, 152)"><rect x="126" y="189" width="7" height="7" /></g><g fill="rgb(68, 84, 102)"><rect x="175" y="189" width="7" height="7" /></g><g fill="rgb(67, 84, 102)"><rect x="294" y="189" width="7" height="7" /></g><g fill="rgb(135, 153, 153)"><rect x="308" y="189" width="7" height="7" /></g><g fill="rgb(69, 84, 102)"><rect x="546" y="189" width="7" height="7" /></g><g fill="rgb(119, 119, 136)"><rect x="133" y="196" width="7" height="7" /></g><g fill="rgb(207, 207, 207)"><rect x="168" y="196" width="7" height="7" /></g><g fill="rgb(136, 136, 154)"><rect x="315" y="196" width="7" height="7" /></g><g fill="rgb(153, 171, 171)"><rect x="329" y="196" width="7" height="7" /></g><g fill="rgb(227, 245, 245)"><rect x="357" y="196" width="7" height="7" /></g><g fill="rgb(120, 136, 153)"><rect x="364" y="196" width="7" height="7" /></g><g fill="rgb(190, 190, 190)"><rect x="378" y="196" width="7" height="7" /></g><g fill="rgb(119, 152, 152)"><rect x="385" y="196" width="7" height="7" /><rect x="497" y="196" width="7" height="7" /></g><g fill="rgb(190, 205, 205)"><rect x="462" y="196" width="7" height="7" /></g><g fill="rgb(101, 120, 120)"><rect x="476" y="196" width="7" height="7" /></g><g fill="rgb(239, 255, 255)"><rect x="385" y="203" width="7" height="7" /></g><g fill="rgb(120, 136, 136)"><rect x="441" y="203" width="7" height="7" /></g><g fill="rgb(225, 243, 243)"><rect x="532" y="203" width="7" height="7" /></g><g fill="rgb(239, 239, 255)"><rect x="406" y="210" width="7" height="7" /></g></svg>