<svg xmlns="http://www.w3.org/2000/svg" width="250" height="250" viewBox="0 0 250 250">
<!-- SVG created with Arrow, by QuiverAI (https://quiver.ai) -->
  <path d="m130 36.67h28.6v4.84h10.1v5.47h4.8v4.51h9.55v18.35h5.59v12.26h4.76v10.52h5.1v10.16h4.89v19.4h4.89v5.13h10.25v4.9h5.87v5.07h7.17v14.62h7.43v16.07h5.6v19.86h-5.6v5.46h-5.1v5.24h-5.15v4.14h-30.25v4.97h-10.08v4.98h-59.12v-5.57h-13.89v-5.03h-5.34v-5.74h-5.25v-8.45h-10.08v4.39h-53.96v-4.71h-15.6v-5.47h-10.57v-5.32h-5.2v-4.23h-4.03v-20.59h4.89v-9.74h4.34v-15.67h5.4v-9.05h4.89v-4.71h10.02v-5.26h10.19v-5.03h10.72v-5.03h14.17v-20.41h4.94v-4.9h4.34v-5.74h5.7v-5.08h9.76v-5.13h4.64v-5.03h10.24v-4.9h10.52v-4.98h9.16v-4.57h0.7z" fill="#000"/>
  <path d="m130.8 41.01h24.96v4.96h9.53v5.13h6.15v5.12h4.08v13.56h6.35v7.83h4.92v9.54h5.08v14.62h-5.1v4.71h-10.08v5.74h-6.56v5.19h-5.2v4.39h-8.47v4.46h9.97v-1.25h22.35v-2.1h8.31v-19.87h2.41v24.28h7.89v5.19h9.65v5.19h6.1v4.71h5.44v8.89h5.87v17.19h4.8v14.62h-4.29v8.9h-4.85v5.12h-28.94v-14.02h-4.35v-10.68h-7.08v-10.16h-12.08v-4.23h-13.54v-10.22h5.1v-5.07h-8.91v-5.47h-6.45v-10.16h-8.76v-5.07h5.5v-9.89h-5.5v-9.85h-4.89v-10.16h-4.44v-4.46h9.75v-2.71h-31.33v-4.9h5v-3.33h-9.16v-5.13h-15.6v-5.74h4.8v-5.08h5.65v-5.13h9.31v-4.84h9.6v-4.62h7.01v-5.2z" fill="#A5A07F"/>
  <path d="m74.72 79.36h4.59v-8.3h5.6v-4.84h9.54v-4.94h4.89v-4.85h5.59v3.6h-5.05v5.19h-5.25v5.03h-5.1v6.67h1.2v5.13h3.67v4.08h15.37l3.34 1.24v4.74h19.5v4.08h4.45v5.47h5.34v9.39h-5.92v6.47h-11.17v-4.71h-9.19v-5.46h-6.35v-5.03h-5.7v-5.26h-18.94v-4.95h-6.15v-5.98h-4.26v-6.77z" fill="#B6AE95"/>
  <path d="m75.25 80.36h3.8v-8.3h5.3v-4.84h5.1v9.39h1.2v5.13h20.81v5.12h2v9.85h17.19v5.13h12.33v7.17l-5.25 3.71v4.46h-12.62v-4.71h-9.49v-5.03h-6.35v-5.03h-5.7v-5.29h-18.14v-4.71h-6.45v-5.32h-3.73v-6.73z" fill="#9C9170"/>
  <path d="m133.7 71.84h15.6v-5.13h4.19v5.13h-3.34v4.29h-16.45v-4.29z" fill="#9C9170"/>
  <path d="m165.1 65.85h4.39v5.41h-4.39v-5.41z" fill="#D8C8A6"/>
  <path d="m158.3 71.26h5.59v4.8h-5.59v-4.8z" fill="#D8C8A6"/>
  <path d="m153.7 76.06h4.59v6.26h-4.59v-6.26z" fill="#D8C8A6"/>
  <path d="m149.1 86.81 5.92-0.68v-3.81h3.27v-6.26h5.59v-4.8h7.5v-14.62h5.1v8h1.4v8.45h4.45v5.12h4.45v8.9h4.44v9.54h-4.59v5.12h-9.95v4.71h-10.08v4.57h-10.03v-6.32h-5.92v-6.9h-1.55v-11.02z" fill="#6A6958"/>
  <path d="m173.8 102.8h5.6v5.13h-5.6v-5.13z" fill="#C2B59A"/>
  <path d="m162.7 107.9h5.92v5.41h-5.92v-5.41z" fill="#C2B59A"/>
  <path d="m152.2 111h10.52v5.87h-10.52v-5.87z" fill="#C2B59A"/>
  <path d="m146.5 126.3h5.65v-5.13h5.05v5.13h8.98v-2.2h22.58v3.97h4.43v5.32h-5.25v5.13h-4.45v-5.47h-4.69v4.61h4.84v5.13h-17.4v-5.47h-11.83v-4.95h-7.91v-6.07z" fill="#494643"/>
  <path d="m177.9 132.2h10.52v5.07h-5.35v5.47h-5.17v-5.47h-2.79v-5.07h2.79z" fill="#D8C8A6"/>
  <path d="m193.2 126.3h10.92v4.98h8.21v4.97h4.75v5.74h-4.95v4.34h-9.49v5.13h-22.95v-5.13h-8.66v-4.28h6.9v-4.73h10.07v-5.07h5.2v-5.95z" fill="#A59B7B"/>
  <path d="m216.4 136.2h4.9v5.74h-4.9v-5.74z" fill="#91896D"/>
  <path d="m211.5 142h5.59v5.63h-10.97v4.46h-4.9v-0.68h-22.4v-4.34h-8.5v0.86h-5.34v5.13h4.74v4.29h7.84v0.74h10.52v4.23h7.18v5.53h7.17v10.89h5.25v6.03h4.44v2.99h4.9v-5.13h5.64v4.18h5.6v-8.07h9.39v-10.22h-3.6v-15.73h-5.4v-9.6h-6.01v-5.42h-6.25v4.23z" fill="#6F6F5C"/>
  <path d="m211.5 153h5.59v5.03h-5.59v4.23h-6.55v-5.19h4.74v-4.07h1.81z" fill="#A59B7B"/>
  <path d="m212 168.6h5.6v4.97h-5.6v-4.97z" fill="#A59B7B"/>
  <path d="m218.2 173.6h4.9v5.59h-4.9v-5.59z" fill="#A59B7B"/>
  <path d="m217.5 182.5h4.9v4.57h-4.9v-4.57z" fill="#7F7961"/>
  <path d="m114.2 80.08h4.85v4.9h-4.85v-4.9z" fill="#9C9170"/>
  <path d="m43.31 107.1h5.4v-4.09h7.28v-1.66h18.83v2.34h6.02v6.31h5.92v7.12h-1.4v5.07h-4.35v4.9h-4.99v-0.97h-15.6v5.8h2.4v4.18h-7.43v-5.8h-5.25v-5.13h-5.65v-4.97h-14.55v-3.2h5.75v-4.84h7.62v-5.06z" fill="#B6AE95"/>
  <path d="m60.42 127.1h15.45v5.19h-15.45v-5.19z" fill="#9C9170"/>
  <path d="m39.04 123.1h4.9v5.19h-4.9v-5.19z" fill="#C2B59A"/>
  <path d="m44.49 128.3h4.89v5.41h-4.89v-5.41z" fill="#C2B59A"/>
  <path d="m49.38 133.7h4.9v5.42h-4.9v-5.42z" fill="#C2B59A"/>
  <path d="m53.53 139.2h6.55v5.12h-6.55v-5.12z" fill="#C2B59A"/>
  <path d="m19.72 126.2h4.9v-8.74h3.79v6.67h5.7v3.04h9.23v5.47h4.45v5.74h6.55v5.68h5.59v-4.9h6.2v-2.2h8.49v-4.65h4.5v6.13h5.35v4.65h5.14v5.13h3.3v9.99h2.6v13.96h-4.95v6.03h-5.4v5.13h-8.44v3.65h-9.19v-8.78h-3.9v-6.41h-13.15v-3.33h-4.89v8.44h-10.53v-4.84h-6.25v-4.47h-10.54v-4.9h-6.25v-8.84h3.1v-11.7h4.6v-15.95z" fill="#9C9170"/>
  <path d="m25.31 147.6h4.9v4.89h-4.9v-4.89z" fill="#C2B59A"/>
  <path d="m30.21 142.8h4.9v4.89h-4.9v-4.89z" fill="#C2B59A"/>
  <path d="m50.21 158h3.7v9.22h-3.7v-9.22z" fill="#B6AE95"/>
  <path d="m60.18 172.5h4.9v5.13h-4.9v-5.13z" fill="#514D47"/>
  <path d="m46.43 173.1h12.7v5.13h5.4v8.69h-10.87v-3.54h-11.07v-5.13h3.84v-5.15z" fill="#676751"/>
  <path d="m26.11 181.8h15.45v4.89h-15.45v-4.89z" fill="#000"/>
  <path d="m70.01 97.41h5.2v3.97h-5.2v-3.97z" fill="#000"/>
  <path d="m109.4 192.7h4.34v4.6h-4.34v-4.6z" fill="#000"/>
  <path d="m115.4 202h13.09v4.57h-13.09v-4.57z" fill="#000"/>
  <path d="m184.8 205h8.16v2.63h-8.16v-2.63z" fill="#000"/>
  <path d="m109.9 117.4h-4.9v-5.13h-4.89v-5.13h-7.84v-4.43h-11.93v-4.97h-5.59v-16.01h4.29v10.43h5.6v5.52h15.6v5.29h5.34v5.03h4.45v4.71h-0.13v4.69z" fill="#5E5D4E"/>
  <path d="m105 117.4h4.9v7.4h4.05v6.41h5.44v6.47h4.34v5.47h20.66v4.08h-13.54v5.19h-9.81v-5.19h-4.04v-10.01h-3.45v-6.9h-5.95v-8.11h-2.6v-4.81z" fill="#3A3835"/>
  <path d="m104.8 180.7v-12.35h3.99v-10.63h4.9v-6.42h5.69v-4.56h3.05v4.56h4.6v4.84h-7.05v5.07h-5.87v6.31h-3.22v18.51h-6.09v-5.33z" fill="#494643"/>
  <path d="m95.45 183.1h9.33v4.51h-9.33v-4.51z" fill="#000"/>
  <path d="m113.1 156.6h4.3v7.3h-4.3v-7.3z" fill="#514D47"/>
  <path d="m115.1 168.4h6.15v6.26h-6.15v-6.26z" fill="#B6AE95"/>
  <path d="m121.5 173.9h7.5v5.8h-7.5v-5.8z" fill="#B6AE95"/>
  <path d="m129 179.7h15.45v5.8h6.45v4.07h-7.84v5.74h-3.55v6.13h-13.3v-3.82h-8.5v-6.61h-5.4v-9.12h-1.25v-9.74h6.65v5.47h11.29v2.08z" fill="#9C9170"/>
  <path d="m144.5 179.7h10.54v5.58h-10.54v-5.58z" fill="#D8C8A6"/>
  <path d="m155 179.7h17.19v5.58h-17.19v-5.58z" fill="#D8C8A6"/>
  <path d="m175.6 179.2h5.59v5.41h-5.59v-5.41z" fill="#D8C8A6"/>
  <path d="m180.2 168.6h4.4v8.07h-4.4v-8.07z" fill="#D8C8A6"/>
  <path d="m150.9 186.2h20.1v5.41h-5.09v5.63h-5.35v5.36h-2.25v4.23h-27.16v-5.36h7.99v-6.13h5.92v-6.2h5.84v-2.94z" fill="#6F6F5C"/>
  <path d="m171 192h2.7v10.6h-6.59v-5.99h3.89v-4.61z" fill="#494643"/>
  <path d="m171.6 187.5h4.9v3.38h0.49v9.69h7.84v4.84h10.12v-5.99h3.65v-15.79h-4v-10.93h-5.86v0.4h-3.59v4.51h-6.4v7.52h-7.15v2.37z" fill="#747561"/>
  <path d="m128.5 207h59.54v5.57h-59.54v-5.57z" fill="#000"/>
  <path d="m133.7 158h4.9v4.23h5.04v5.19h3.75v4.66h9.8v-3.65h5.6v9.15h14.31v5.49h-4.85v2.43h-17.54v-5.88h-7.49v-5.74h-5.25v3.7h-13.14v-13.96h4.87v-5.62z" fill="#A59B7B"/>
  <path d="m129 147.2h15.45v2.92h4.7v1.88h6.89v-4.8h4.5v8.97h12.49v6.47h5.59v5.12h2.6v8.92h-3.74v1.54h-13.54v-7.23h-5.25v1.68h-10.49v-4.29h-4.39v-4.9h-4.9v-4.07h-4.7v-3.3h-5.21v-8.91z" fill="#B6AE95"/>
</svg>